<?xml version="1.0" encoding="UTF-8"?>
<svg id="Capa_7" data-name="Capa 7" xmlns="http://www.w3.org/2000/svg" viewBox="0 0 613.57 610.43">
  <defs>
    <style>
      .cls-1 {
        fill: #ee8c71;
        stroke-width: 0px;
      }
    </style>
  </defs>
  <polygon class="cls-1" points="378.58 72.92 337.75 117.32 399.35 184.31 336.97 252.14 336.97 250.89 336.97 250.89 336.97 183.09 306.78 150.15 276.6 183.09 276.6 229.81 276.6 250.89 276.6 252.14 214.22 184.31 275.82 117.32 234.99 72.92 132.55 184.31 306.78 373.76 481.02 184.31 378.58 72.92"/>
  <polygon class="cls-1" points="410.33 329.02 410.52 329.21 306.78 439.88 203.05 329.21 203.23 329.02 157.47 280.2 111.53 329.21 306.78 537.51 502.04 329.21 456.1 280.2 410.33 329.02"/>
</svg>